<svg version="1.1" viewBox="0.0 0.0 608.0 376.0" fill="none" stroke="none" stroke-linecap="square" stroke-miterlimit="10" width="608" height="376" xmlns:xlink="http://www.w3.org/1999/xlink" xmlns="http://www.w3.org/2000/svg"><path fill="#ffffff" d="M0 0L608.0 0L608.0 376.0L0 376.0L0 0Z" fill-rule="nonzero"/><path stroke="#333333" stroke-width="1.0" stroke-linecap="butt" d="M54.5 336.5L589.5 336.5" fill-rule="nonzero"/><path stroke="#cccccc" stroke-width="1.0" stroke-linecap="butt" d="M54.5 254.5L589.5 254.5" fill-rule="nonzero"/><path stroke="#cccccc" stroke-width="1.0" stroke-linecap="butt" d="M54.5 172.5L589.5 172.5" fill-rule="nonzero"/><path stroke="#cccccc" stroke-width="1.0" stroke-linecap="butt" d="M54.5 90.5L589.5 90.5" fill-rule="nonzero"/><path stroke="#e6e6e6" stroke-width="1.0" stroke-linecap="butt" d="M54.5 308.5L589.5 308.5" fill-rule="nonzero"/><path stroke="#e6e6e6" stroke-width="1.0" stroke-linecap="butt" d="M54.5 281.5L589.5 281.5" fill-rule="nonzero"/><path stroke="#e6e6e6" stroke-width="1.0" stroke-linecap="butt" d="M54.5 226.5L589.5 226.5" fill-rule="nonzero"/><path stroke="#e6e6e6" stroke-width="1.0" stroke-linecap="butt" d="M54.5 199.5L589.5 199.5" fill-rule="nonzero"/><path stroke="#e6e6e6" stroke-width="1.0" stroke-linecap="butt" d="M54.5 144.5L589.5 144.5" fill-rule="nonzero"/><path stroke="#e6e6e6" stroke-width="1.0" stroke-linecap="butt" d="M54.5 117.5L589.5 117.5" fill-rule="nonzero"/><path stroke="#000000" stroke-width="1.0" stroke-linecap="butt" d="M54.5 336.5L54.5 90.5" fill-rule="nonzero"/><clipPath id="id_0"><path d="M54.8 90.36667L589.2 90.36667L589.2 336.2L54.8 336.2L54.8 90.36667Z" clip-rule="nonzero"/></clipPath><path stroke="#000000" stroke-width="2.0" stroke-linecap="butt" stroke-opacity="0.0" clip-path="url(#id_0)" d="M282.0 336.0L134.0 336.0L134.0 301.0L282.0 301.0Z" fill-rule="nonzero"/><path fill="#cccccc" clip-path="url(#id_0)" d="M282.0 336.0L134.0 336.0L134.0 301.0L282.0 301.0Z" fill-rule="nonzero"/><path stroke="#000000" stroke-width="2.0" stroke-linecap="butt" stroke-opacity="0.0" clip-path="url(#id_0)" d="M510.0 336.0L362.0 336.0L362.0 299.0L510.0 299.0Z" fill-rule="nonzero"/><path fill="#cccccc" clip-path="url(#id_0)" d="M510.0 336.0L362.0 336.0L362.0 299.0L510.0 299.0Z" fill-rule="nonzero"/><path stroke="#000000" stroke-width="2.0" stroke-linecap="butt" stroke-opacity="0.0" clip-path="url(#id_0)" d="M282.0 301.0L134.0 301.0L134.0 132.0C134.0 130.89543 134.89543 130.0 136.0 130.0L280.0 130.0C281.10458 130.0 282.0 130.89543 282.0 132.0Z" fill-rule="nonzero"/><path fill="#3c78d8" clip-path="url(#id_0)" d="M282.0 301.0L134.0 301.0L134.0 132.0C134.0 130.89543 134.89543 130.0 136.0 130.0L280.0 130.0C281.10458 130.0 282.0 130.89543 282.0 132.0Z" fill-rule="nonzero"/><path stroke="#000000" stroke-width="2.0" stroke-linecap="butt" stroke-opacity="0.0" clip-path="url(#id_0)" d="M510.0 299.0L362.0 299.0L362.0 206.0C362.0 204.89543 362.89542 204.0 364.0 204.0L508.0 204.0C509.10458 204.0 510.0 204.89543 510.0 206.0Z" fill-rule="nonzero"/><path fill="#3c78d8" clip-path="url(#id_0)" d="M510.0 299.0L362.0 299.0L362.0 206.0C362.0 204.89543 362.89542 204.0 364.0 204.0L508.0 204.0C509.10458 204.0 510.0 204.89543 510.0 206.0Z" fill-rule="nonzero"/><path stroke="#000000" stroke-width="1.0" stroke-linecap="butt" d="M51.5 308.5L57.5 308.5" fill-rule="nonzero"/><path stroke="#000000" stroke-width="1.0" stroke-linecap="butt" d="M51.5 281.5L57.5 281.5" fill-rule="nonzero"/><path stroke="#000000" stroke-width="1.0" stroke-linecap="butt" d="M51.5 226.5L57.5 226.5" fill-rule="nonzero"/><path stroke="#000000" stroke-width="1.0" stroke-linecap="butt" d="M51.5 199.5L57.5 199.5" fill-rule="nonzero"/><path stroke="#000000" stroke-width="1.0" stroke-linecap="butt" d="M51.5 144.5L57.5 144.5" fill-rule="nonzero"/><path stroke="#000000" stroke-width="1.0" stroke-linecap="butt" d="M51.5 117.5L57.5 117.5" fill-rule="nonzero"/><path stroke="#3c78d8" stroke-width="3.0" stroke-linejoin="round" stroke-linecap="round" d="M192.78125 217.31079L193.96875 217.31079L193.96875 218.18579L192.78125 218.18579L192.78125 220.17017L191.70312 220.17017L191.70312 218.18579L187.8125 218.18579L187.8125 217.54517L191.625 211.63892L192.78125 211.63892L192.78125 217.31079ZM189.04688 217.31079L191.70312 217.31079L191.70312 213.12329L191.5625 213.35767L189.04688 217.31079ZM195.34375 219.60767Q195.34375 219.32642 195.5 219.13892Q195.67188 218.95142 196.0 218.95142Q196.34375 218.95142 196.51562 219.13892Q196.6875 219.32642 196.6875 219.60767Q196.6875 219.87329 196.51562 220.06079Q196.34375 220.23267 196.0 220.23267Q195.67188 220.23267 195.5 220.06079Q195.34375 219.87329 195.34375 219.60767ZM201.76562 220.17017L200.6875 220.17017L200.6875 212.95142L198.5 213.74829L198.5 212.76392L201.60938 211.59204L201.76562 211.59204L201.76562 220.17017ZM210.71875 212.24829L207.1875 220.17017L206.04688 220.17017L209.5625 212.52954L204.95312 212.52954L204.95312 211.63892L210.71875 211.63892L210.71875 212.24829ZM213.34375 213.82642L213.375 214.52954Q214.0625 213.71704 215.25 213.71704Q216.57812 213.71704 217.0625 214.73267Q217.375 214.27954 217.875 213.99829Q218.39062 213.71704 219.07812 213.71704Q221.17188 213.71704 221.20312 215.92017L221.20312 220.17017L220.125 220.17017L220.125 215.98267Q220.125 215.31079 219.8125 214.98267Q219.5 214.63892 218.76562 214.63892Q218.15625 214.63892 217.75 214.99829Q217.35938 215.35767 217.29688 215.96704L217.29688 220.17017L216.21875 220.17017L216.21875 216.01392Q216.21875 214.63892 214.85938 214.63892Q213.79688 214.63892 213.40625 215.54517L213.40625 220.17017L212.3125 220.17017L212.3125 213.82642L213.34375 213.82642ZM227.01562 218.48267Q227.01562 218.04517 226.67188 217.81079Q226.34375 217.56079 225.51562 217.38892Q224.70312 217.21704 224.21875 216.96704Q223.73438 216.71704 223.5 216.38892Q223.28125 216.04517 223.28125 215.57642Q223.28125 214.79517 223.9375 214.26392Q224.59375 213.71704 225.625 213.71704Q226.70312 213.71704 227.35938 214.27954Q228.03125 214.82642 228.03125 215.68579L226.95312 215.68579Q226.95312 215.24829 226.5625 214.93579Q226.1875 214.60767 225.625 214.60767Q225.03125 214.60767 224.6875 214.87329Q224.35938 215.12329 224.35938 215.52954Q224.35938 215.92017 224.67188 216.12329Q224.98438 216.32642 225.79688 216.51392Q226.60938 216.68579 227.10938 216.93579Q227.60938 217.18579 227.84375 217.54517Q228.09375 217.90454 228.09375 218.40454Q228.09375 219.26392 227.40625 219.77954Q226.73438 220.29517 225.65625 220.29517Q224.89062 220.29517 224.29688 220.02954Q223.71875 219.74829 223.39062 219.26392Q223.0625 218.77954 223.0625 218.21704L224.14062 218.21704Q224.17188 218.76392 224.57812 219.09204Q224.98438 219.40454 225.65625 219.40454Q226.26562 219.40454 226.64062 219.15454Q227.01562 218.90454 227.01562 218.48267Z" fill-rule="nonzero"/><path fill="#ffffff" d="M192.78125 217.31079L193.96875 217.31079L193.96875 218.18579L192.78125 218.18579L192.78125 220.17017L191.70312 220.17017L191.70312 218.18579L187.8125 218.18579L187.8125 217.54517L191.625 211.63892L192.78125 211.63892L192.78125 217.31079ZM189.04688 217.31079L191.70312 217.31079L191.70312 213.12329L191.5625 213.35767L189.04688 217.31079ZM195.34375 219.60767Q195.34375 219.32642 195.5 219.13892Q195.67188 218.95142 196.0 218.95142Q196.34375 218.95142 196.51562 219.13892Q196.6875 219.32642 196.6875 219.60767Q196.6875 219.87329 196.51562 220.06079Q196.34375 220.23267 196.0 220.23267Q195.67188 220.23267 195.5 220.06079Q195.34375 219.87329 195.34375 219.60767ZM201.76562 220.17017L200.6875 220.17017L200.6875 212.95142L198.5 213.74829L198.5 212.76392L201.60938 211.59204L201.76562 211.59204L201.76562 220.17017ZM210.71875 212.24829L207.1875 220.17017L206.04688 220.17017L209.5625 212.52954L204.95312 212.52954L204.95312 211.63892L210.71875 211.63892L210.71875 212.24829ZM213.34375 213.82642L213.375 214.52954Q214.0625 213.71704 215.25 213.71704Q216.57812 213.71704 217.0625 214.73267Q217.375 214.27954 217.875 213.99829Q218.39062 213.71704 219.07812 213.71704Q221.17188 213.71704 221.20312 215.92017L221.20312 220.17017L220.125 220.17017L220.125 215.98267Q220.125 215.31079 219.8125 214.98267Q219.5 214.63892 218.76562 214.63892Q218.15625 214.63892 217.75 214.99829Q217.35938 215.35767 217.29688 215.96704L217.29688 220.17017L216.21875 220.17017L216.21875 216.01392Q216.21875 214.63892 214.85938 214.63892Q213.79688 214.63892 213.40625 215.54517L213.40625 220.17017L212.3125 220.17017L212.3125 213.82642L213.34375 213.82642ZM227.01562 218.48267Q227.01562 218.04517 226.67188 217.81079Q226.34375 217.56079 225.51562 217.38892Q224.70312 217.21704 224.21875 216.96704Q223.73438 216.71704 223.5 216.38892Q223.28125 216.04517 223.28125 215.57642Q223.28125 214.79517 223.9375 214.26392Q224.59375 213.71704 225.625 213.71704Q226.70312 213.71704 227.35938 214.27954Q228.03125 214.82642 228.03125 215.68579L226.95312 215.68579Q226.95312 215.24829 226.5625 214.93579Q226.1875 214.60767 225.625 214.60767Q225.03125 214.60767 224.6875 214.87329Q224.35938 215.12329 224.35938 215.52954Q224.35938 215.92017 224.67188 216.12329Q224.98438 216.32642 225.79688 216.51392Q226.60938 216.68579 227.10938 216.93579Q227.60938 217.18579 227.84375 217.54517Q228.09375 217.90454 228.09375 218.40454Q228.09375 219.26392 227.40625 219.77954Q226.73438 220.29517 225.65625 220.29517Q224.89062 220.29517 224.29688 220.02954Q223.71875 219.74829 223.39062 219.26392Q223.0625 218.77954 223.0625 218.21704L224.14062 218.21704Q224.17188 218.76392 224.57812 219.09204Q224.98438 219.40454 225.65625 219.40454Q226.26562 219.40454 226.64062 219.15454Q227.01562 218.90454 227.01562 218.48267Z" fill-rule="nonzero"/><path stroke="#3c78d8" stroke-width="3.0" stroke-linejoin="round" stroke-linecap="round" d="M421.79688 255.8817L416.20312 255.8817L416.20312 255.10045L419.15625 251.8192Q419.8125 251.0692 420.0625 250.61607Q420.3125 250.14732 420.3125 249.64732Q420.3125 248.97545 419.90625 248.55357Q419.51562 248.11607 418.82812 248.11607Q418.03125 248.11607 417.57812 248.58482Q417.125 249.03795 417.125 249.86607L416.04688 249.86607Q416.04688 248.67857 416.79688 247.95982Q417.5625 247.22545 418.82812 247.22545Q420.03125 247.22545 420.71875 247.85045Q421.40625 248.47545 421.40625 249.52232Q421.40625 250.77232 419.79688 252.52232L417.51562 254.99107L421.79688 254.99107L421.79688 255.8817ZM423.34375 255.3192Q423.34375 255.03795 423.5 254.85045Q423.67188 254.66295 424.0 254.66295Q424.34375 254.66295 424.51562 254.85045Q424.6875 255.03795 424.6875 255.3192Q424.6875 255.58482 424.51562 255.77232Q424.34375 255.9442 424.0 255.9442Q423.67188 255.9442 423.5 255.77232Q423.34375 255.58482 423.34375 255.3192ZM427.78125 251.08482L428.59375 251.08482Q429.375 251.0692 429.8125 250.67857Q430.25 250.28795 430.25 249.61607Q430.25 248.11607 428.75 248.11607Q428.04688 248.11607 427.625 248.52232Q427.21875 248.92857 427.21875 249.58482L426.125 249.58482Q426.125 248.5692 426.85938 247.89732Q427.60938 247.22545 428.75 247.22545Q429.95312 247.22545 430.64062 247.86607Q431.32812 248.5067 431.32812 249.64732Q431.32812 250.20982 430.96875 250.72545Q430.60938 251.24107 429.98438 251.5067Q430.6875 251.72545 431.0625 252.24107Q431.45312 252.7567 431.45312 253.5067Q431.45312 254.64732 430.70312 255.33482Q429.95312 256.0067 428.75 256.0067Q427.5625 256.0067 426.79688 255.35045Q426.04688 254.6942 426.04688 253.6317L427.14062 253.6317Q427.14062 254.30357 427.57812 254.70982Q428.01562 255.11607 428.76562 255.11607Q429.54688 255.11607 429.95312 254.70982Q430.375 254.28795 430.375 253.52232Q430.375 252.78795 429.92188 252.39732Q429.46875 251.99107 428.59375 251.97545L427.78125 251.97545L427.78125 251.08482ZM438.79688 255.8817L433.20312 255.8817L433.20312 255.10045L436.15625 251.8192Q436.8125 251.0692 437.0625 250.61607Q437.3125 250.14732 437.3125 249.64732Q437.3125 248.97545 436.90625 248.55357Q436.51562 248.11607 435.82812 248.11607Q435.03125 248.11607 434.57812 248.58482Q434.125 249.03795 434.125 249.86607L433.04688 249.86607Q433.04688 248.67857 433.79688 247.95982Q434.5625 247.22545 435.82812 247.22545Q437.03125 247.22545 437.71875 247.85045Q438.40625 248.47545 438.40625 249.52232Q438.40625 250.77232 436.79688 252.52232L434.51562 254.99107L438.79688 254.99107L438.79688 255.8817ZM441.34375 249.53795L441.375 250.24107Q442.0625 249.42857 443.25 249.42857Q444.57812 249.42857 445.0625 250.4442Q445.375 249.99107 445.875 249.70982Q446.39062 249.42857 447.07812 249.42857Q449.17188 249.42857 449.20312 251.6317L449.20312 255.8817L448.125 255.8817L448.125 251.6942Q448.125 251.02232 447.8125 250.6942Q447.5 250.35045 446.76562 250.35045Q446.15625 250.35045 445.75 250.70982Q445.35938 251.0692 445.29688 251.67857L445.29688 255.8817L444.21875 255.8817L444.21875 251.72545Q444.21875 250.35045 442.85938 250.35045Q441.79688 250.35045 441.40625 251.2567L441.40625 255.8817L440.3125 255.8817L440.3125 249.53795L441.34375 249.53795ZM455.01562 254.1942Q455.01562 253.7567 454.67188 253.52232Q454.34375 253.27232 453.51562 253.10045Q452.70312 252.92857 452.21875 252.67857Q451.73438 252.42857 451.5 252.10045Q451.28125 251.7567 451.28125 251.28795Q451.28125 250.5067 451.9375 249.97545Q452.59375 249.42857 453.625 249.42857Q454.70312 249.42857 455.35938 249.99107Q456.03125 250.53795 456.03125 251.39732L454.95312 251.39732Q454.95312 250.95982 454.5625 250.64732Q454.1875 250.3192 453.625 250.3192Q453.03125 250.3192 452.6875 250.58482Q452.35938 250.83482 452.35938 251.24107Q452.35938 251.6317 452.67188 251.83482Q452.98438 252.03795 453.79688 252.22545Q454.60938 252.39732 455.10938 252.64732Q455.60938 252.89732 455.84375 253.2567Q456.09375 253.61607 456.09375 254.11607Q456.09375 254.97545 455.40625 255.49107Q454.73438 256.0067 453.65625 256.0067Q452.89062 256.0067 452.29688 255.74107Q451.71875 255.45982 451.39062 254.97545Q451.0625 254.49107 451.0625 253.92857L452.14062 253.92857Q452.17188 254.47545 452.57812 254.80357Q452.98438 255.11607 453.65625 255.11607Q454.26562 255.11607 454.64062 254.86607Q455.01562 254.61607 455.01562 254.1942Z" fill-rule="nonzero"/><path fill="#ffffff" d="M421.79688 255.8817L416.20312 255.8817L416.20312 255.10045L419.15625 251.8192Q419.8125 251.0692 420.0625 250.61607Q420.3125 250.14732 420.3125 249.64732Q420.3125 248.97545 419.90625 248.55357Q419.51562 248.11607 418.82812 248.11607Q418.03125 248.11607 417.57812 248.58482Q417.125 249.03795 417.125 249.86607L416.04688 249.86607Q416.04688 248.67857 416.79688 247.95982Q417.5625 247.22545 418.82812 247.22545Q420.03125 247.22545 420.71875 247.85045Q421.40625 248.47545 421.40625 249.52232Q421.40625 250.77232 419.79688 252.52232L417.51562 254.99107L421.79688 254.99107L421.79688 255.8817ZM423.34375 255.3192Q423.34375 255.03795 423.5 254.85045Q423.67188 254.66295 424.0 254.66295Q424.34375 254.66295 424.51562 254.85045Q424.6875 255.03795 424.6875 255.3192Q424.6875 255.58482 424.51562 255.77232Q424.34375 255.9442 424.0 255.9442Q423.67188 255.9442 423.5 255.77232Q423.34375 255.58482 423.34375 255.3192ZM427.78125 251.08482L428.59375 251.08482Q429.375 251.0692 429.8125 250.67857Q430.25 250.28795 430.25 249.61607Q430.25 248.11607 428.75 248.11607Q428.04688 248.11607 427.625 248.52232Q427.21875 248.92857 427.21875 249.58482L426.125 249.58482Q426.125 248.5692 426.85938 247.89732Q427.60938 247.22545 428.75 247.22545Q429.95312 247.22545 430.64062 247.86607Q431.32812 248.5067 431.32812 249.64732Q431.32812 250.20982 430.96875 250.72545Q430.60938 251.24107 429.98438 251.5067Q430.6875 251.72545 431.0625 252.24107Q431.45312 252.7567 431.45312 253.5067Q431.45312 254.64732 430.70312 255.33482Q429.95312 256.0067 428.75 256.0067Q427.5625 256.0067 426.79688 255.35045Q426.04688 254.6942 426.04688 253.6317L427.14062 253.6317Q427.14062 254.30357 427.57812 254.70982Q428.01562 255.11607 428.76562 255.11607Q429.54688 255.11607 429.95312 254.70982Q430.375 254.28795 430.375 253.52232Q430.375 252.78795 429.92188 252.39732Q429.46875 251.99107 428.59375 251.97545L427.78125 251.97545L427.78125 251.08482ZM438.79688 255.8817L433.20312 255.8817L433.20312 255.10045L436.15625 251.8192Q436.8125 251.0692 437.0625 250.61607Q437.3125 250.14732 437.3125 249.64732Q437.3125 248.97545 436.90625 248.55357Q436.51562 248.11607 435.82812 248.11607Q435.03125 248.11607 434.57812 248.58482Q434.125 249.03795 434.125 249.86607L433.04688 249.86607Q433.04688 248.67857 433.79688 247.95982Q434.5625 247.22545 435.82812 247.22545Q437.03125 247.22545 437.71875 247.85045Q438.40625 248.47545 438.40625 249.52232Q438.40625 250.77232 436.79688 252.52232L434.51562 254.99107L438.79688 254.99107L438.79688 255.8817ZM441.34375 249.53795L441.375 250.24107Q442.0625 249.42857 443.25 249.42857Q444.57812 249.42857 445.0625 250.4442Q445.375 249.99107 445.875 249.70982Q446.39062 249.42857 447.07812 249.42857Q449.17188 249.42857 449.20312 251.6317L449.20312 255.8817L448.125 255.8817L448.125 251.6942Q448.125 251.02232 447.8125 250.6942Q447.5 250.35045 446.76562 250.35045Q446.15625 250.35045 445.75 250.70982Q445.35938 251.0692 445.29688 251.67857L445.29688 255.8817L444.21875 255.8817L444.21875 251.72545Q444.21875 250.35045 442.85938 250.35045Q441.79688 250.35045 441.40625 251.2567L441.40625 255.8817L440.3125 255.8817L440.3125 249.53795L441.34375 249.53795ZM455.01562 254.1942Q455.01562 253.7567 454.67188 253.52232Q454.34375 253.27232 453.51562 253.10045Q452.70312 252.92857 452.21875 252.67857Q451.73438 252.42857 451.5 252.10045Q451.28125 251.7567 451.28125 251.28795Q451.28125 250.5067 451.9375 249.97545Q452.59375 249.42857 453.625 249.42857Q454.70312 249.42857 455.35938 249.99107Q456.03125 250.53795 456.03125 251.39732L454.95312 251.39732Q454.95312 250.95982 454.5625 250.64732Q454.1875 250.3192 453.625 250.3192Q453.03125 250.3192 452.6875 250.58482Q452.35938 250.83482 452.35938 251.24107Q452.35938 251.6317 452.67188 251.83482Q452.98438 252.03795 453.79688 252.22545Q454.60938 252.39732 455.10938 252.64732Q455.60938 252.89732 455.84375 253.2567Q456.09375 253.61607 456.09375 254.11607Q456.09375 254.97545 455.40625 255.49107Q454.73438 256.0067 453.65625 256.0067Q452.89062 256.0067 452.29688 255.74107Q451.71875 255.45982 451.39062 254.97545Q451.0625 254.49107 451.0625 253.92857L452.14062 253.92857Q452.17188 254.47545 452.57812 254.80357Q452.98438 255.11607 453.65625 255.11607Q454.26562 255.11607 454.64062 254.86607Q455.01562 254.61607 455.01562 254.1942Z" fill-rule="nonzero"/><path fill="#757575" d="M24.8625 337.0594Q24.8625 338.96564 24.20625 339.90314Q23.565624 340.825 22.175 340.825Q20.815624 340.825 20.159374 339.91876Q19.503124 339.0125 19.471874 337.2L19.471874 335.7625Q19.471874 333.8719 20.1125 332.96564Q20.76875 332.04376 22.159374 332.04376Q23.534374 332.04376 24.190624 332.9344Q24.846874 333.8094 24.8625 335.65314L24.8625 337.0594ZM23.76875 335.575Q23.76875 334.2 23.378124 333.575Q23.003124 332.9344 22.159374 332.9344Q21.33125 332.9344 20.940624 333.575Q20.565624 334.2 20.565624 335.4969L20.565624 337.23126Q20.565624 338.60626 20.95625 339.27814Q21.3625 339.9344 22.175 339.9344Q22.971874 339.9344 23.3625 339.3094Q23.753124 338.6844 23.76875 337.35626L23.76875 335.575ZM27.64375 334.35626L27.675 335.0594Q28.3625 334.2469 29.55 334.2469Q30.878124 334.2469 31.3625 335.2625Q31.675 334.8094 32.175 334.52814Q32.690624 334.2469 33.378124 334.2469Q35.471874 334.2469 35.503124 336.45L35.503124 340.7L34.425 340.7L34.425 336.5125Q34.425 335.84064 34.1125 335.5125Q33.8 335.16876 33.065624 335.16876Q32.45625 335.16876 32.05 335.52814Q31.659374 335.8875 31.596874 336.4969L31.596874 340.7L30.51875 340.7L30.51875 336.54376Q30.51875 335.16876 29.159374 335.16876Q28.096874 335.16876 27.70625 336.075L27.70625 340.7L26.6125 340.7L26.6125 334.35626L27.64375 334.35626ZM41.315624 339.0125Q41.315624 338.575 40.971874 338.34064Q40.64375 338.09064 39.815624 337.91876Q39.003124 337.7469 38.51875 337.4969Q38.034374 337.2469 37.8 336.91876Q37.58125 336.575 37.58125 336.10626Q37.58125 335.325 38.2375 334.79376Q38.89375 334.2469 39.925 334.2469Q41.003124 334.2469 41.659374 334.8094Q42.33125 335.35626 42.33125 336.21564L41.253124 336.21564Q41.253124 335.77814 40.8625 335.46564Q40.4875 335.1375 39.925 335.1375Q39.33125 335.1375 38.9875 335.40314Q38.659374 335.65314 38.659374 336.0594Q38.659374 336.45 38.971874 336.65314Q39.284374 336.85626 40.096874 337.04376Q40.909374 337.21564 41.409374 337.46564Q41.909374 337.71564 42.14375 338.075Q42.39375 338.4344 42.39375 338.9344Q42.39375 339.79376 41.70625 340.3094Q41.034374 340.825 39.95625 340.825Q39.190624 340.825 38.596874 340.5594Q38.01875 340.27814 37.690624 339.79376Q37.3625 339.3094 37.3625 338.7469L38.440624 338.7469Q38.471874 339.29376 38.878124 339.6219Q39.284374 339.9344 39.95625 339.9344Q40.565624 339.9344 40.940624 339.6844Q41.315624 339.4344 41.315624 339.0125Z" fill-rule="nonzero"/><path fill="#757575" d="M25.096874 258.75555L19.503124 258.75555L19.503124 257.9743L22.45625 254.69305Q23.1125 253.94305 23.3625 253.48993Q23.6125 253.02118 23.6125 252.52118Q23.6125 251.8493 23.20625 251.42743Q22.815624 250.98993 22.128124 250.98993Q21.33125 250.98993 20.878124 251.45868Q20.425 251.9118 20.425 252.73993L19.346874 252.73993Q19.346874 251.55243 20.096874 250.83368Q20.8625 250.0993 22.128124 250.0993Q23.33125 250.0993 24.01875 250.7243Q24.70625 251.3493 24.70625 252.39618Q24.70625 253.64618 23.096874 255.39618L20.815624 257.86493L25.096874 257.86493L25.096874 258.75555ZM27.64375 252.4118L27.675 253.11493Q28.3625 252.30243 29.55 252.30243Q30.878124 252.30243 31.3625 253.31805Q31.675 252.86493 32.175 252.58368Q32.690624 252.30243 33.378124 252.30243Q35.471874 252.30243 35.503124 254.50555L35.503124 258.75555L34.425 258.75555L34.425 254.56805Q34.425 253.89618 34.1125 253.56805Q33.8 253.2243 33.065624 253.2243Q32.45625 253.2243 32.05 253.58368Q31.659374 253.94305 31.596874 254.55243L31.596874 258.75555L30.51875 258.75555L30.51875 254.5993Q30.51875 253.2243 29.159374 253.2243Q28.096874 253.2243 27.70625 254.13055L27.70625 258.75555L26.6125 258.75555L26.6125 252.4118L27.64375 252.4118ZM41.315624 257.06805Q41.315624 256.63055 40.971874 256.39618Q40.64375 256.14618 39.815624 255.9743Q39.003124 255.80243 38.51875 255.55243Q38.034374 255.30243 37.8 254.9743Q37.58125 254.63055 37.58125 254.1618Q37.58125 253.38055 38.2375 252.8493Q38.89375 252.30243 39.925 252.30243Q41.003124 252.30243 41.659374 252.86493Q42.33125 253.4118 42.33125 254.27118L41.253124 254.27118Q41.253124 253.83368 40.8625 253.52118Q40.4875 253.19305 39.925 253.19305Q39.33125 253.19305 38.9875 253.45868Q38.659374 253.70868 38.659374 254.11493Q38.659374 254.50555 38.971874 254.70868Q39.284374 254.9118 40.096874 255.0993Q40.909374 255.27118 41.409374 255.52118Q41.909374 255.77118 42.14375 256.13055Q42.39375 256.48993 42.39375 256.98993Q42.39375 257.8493 41.70625 258.36493Q41.034374 258.88055 39.95625 258.88055Q39.190624 258.88055 38.596874 258.61493Q38.01875 258.33368 37.690624 257.8493Q37.3625 257.36493 37.3625 256.80243L38.440624 256.80243Q38.471874 257.3493 38.878124 257.67743Q39.284374 257.98993 39.95625 257.98993Q40.565624 257.98993 40.940624 257.73993Q41.315624 257.48993 41.315624 257.06805Z" fill-rule="nonzero"/><path fill="#757575" d="M24.08125 173.95174L25.26875 173.95174L25.26875 174.82674L24.08125 174.82674L24.08125 176.81111L23.003124 176.81111L23.003124 174.82674L19.1125 174.82674L19.1125 174.18611L22.925 168.27986L24.08125 168.27986L24.08125 173.95174ZM20.346874 173.95174L23.003124 173.95174L23.003124 169.76424L22.8625 169.99861L20.346874 173.95174ZM27.64375 170.46736L27.675 171.17049Q28.3625 170.35799 29.55 170.35799Q30.878124 170.35799 31.3625 171.37361Q31.675 170.92049 32.175 170.63924Q32.690624 170.35799 33.378124 170.35799Q35.471874 170.35799 35.503124 172.56111L35.503124 176.81111L34.425 176.81111L34.425 172.62361Q34.425 171.95174 34.1125 171.62361Q33.8 171.27986 33.065624 171.27986Q32.45625 171.27986 32.05 171.63924Q31.659374 171.99861 31.596874 172.60799L31.596874 176.81111L30.51875 176.81111L30.51875 172.65486Q30.51875 171.27986 29.159374 171.27986Q28.096874 171.27986 27.70625 172.18611L27.70625 176.81111L26.6125 176.81111L26.6125 170.46736L27.64375 170.46736ZM41.315624 175.12361Q41.315624 174.68611 40.971874 174.45174Q40.64375 174.20174 39.815624 174.02986Q39.003124 173.85799 38.51875 173.60799Q38.034374 173.35799 37.8 173.02986Q37.58125 172.68611 37.58125 172.21736Q37.58125 171.43611 38.2375 170.90486Q38.89375 170.35799 39.925 170.35799Q41.003124 170.35799 41.659374 170.92049Q42.33125 171.46736 42.33125 172.32674L41.253124 172.32674Q41.253124 171.88924 40.8625 171.57674Q40.4875 171.24861 39.925 171.24861Q39.33125 171.24861 38.9875 171.51424Q38.659374 171.76424 38.659374 172.17049Q38.659374 172.56111 38.971874 172.76424Q39.284374 172.96736 40.096874 173.15486Q40.909374 173.32674 41.409374 173.57674Q41.909374 173.82674 42.14375 174.18611Q42.39375 174.54549 42.39375 175.04549Q42.39375 175.90486 41.70625 176.42049Q41.034374 176.93611 39.95625 176.93611Q39.190624 176.93611 38.596874 176.67049Q38.01875 176.38924 37.690624 175.90486Q37.3625 175.42049 37.3625 174.85799L38.440624 174.85799Q38.471874 175.40486 38.878124 175.73299Q39.284374 176.04549 39.95625 176.04549Q40.565624 176.04549 40.940624 175.79549Q41.315624 175.54549 41.315624 175.12361Z" fill-rule="nonzero"/><path fill="#757575" d="M23.76875 86.33542L23.76875 87.24167L23.565624 87.24167Q22.3 87.27292 21.55 88.00729Q20.8 88.72604 20.675 90.03854Q21.3625 89.27292 22.51875 89.27292Q23.628124 89.27292 24.3 90.05417Q24.971874 90.83542 24.971874 92.08542Q24.971874 93.39792 24.253124 94.19479Q23.534374 94.99167 22.315624 94.99167Q21.096874 94.99167 20.33125 94.05417Q19.58125 93.10104 19.58125 91.61667L19.58125 91.21042Q19.58125 88.85104 20.58125 87.60104Q21.58125 86.35104 23.565624 86.33542L23.76875 86.33542ZM22.346874 90.17917Q21.784374 90.17917 21.315624 90.50729Q20.846874 90.83542 20.659374 91.35104L20.659374 91.74167Q20.659374 92.80417 21.128124 93.44479Q21.6125 94.08542 22.315624 94.08542Q23.05 94.08542 23.471874 93.55417Q23.89375 93.00729 23.89375 92.13229Q23.89375 91.25729 23.471874 90.72604Q23.05 90.17917 22.346874 90.17917ZM27.64375 88.52292L27.675 89.22604Q28.3625 88.41354 29.55 88.41354Q30.878124 88.41354 31.3625 89.42917Q31.675 88.97604 32.175 88.69479Q32.690624 88.41354 33.378124 88.41354Q35.471874 88.41354 35.503124 90.61667L35.503124 94.86667L34.425 94.86667L34.425 90.67917Q34.425 90.00729 34.1125 89.67917Q33.8 89.33542 33.065624 89.33542Q32.45625 89.33542 32.05 89.69479Q31.659374 90.05417 31.596874 90.66354L31.596874 94.86667L30.51875 94.86667L30.51875 90.71042Q30.51875 89.33542 29.159374 89.33542Q28.096874 89.33542 27.70625 90.24167L27.70625 94.86667L26.6125 94.86667L26.6125 88.52292L27.64375 88.52292ZM41.315624 93.17917Q41.315624 92.74167 40.971874 92.50729Q40.64375 92.25729 39.815624 92.08542Q39.003124 91.91354 38.51875 91.66354Q38.034374 91.41354 37.8 91.08542Q37.58125 90.74167 37.58125 90.27292Q37.58125 89.49167 38.2375 88.96042Q38.89375 88.41354 39.925 88.41354Q41.003124 88.41354 41.659374 88.97604Q42.33125 89.52292 42.33125 90.38229L41.253124 90.38229Q41.253124 89.94479 40.8625 89.63229Q40.4875 89.30417 39.925 89.30417Q39.33125 89.30417 38.9875 89.56979Q38.659374 89.81979 38.659374 90.22604Q38.659374 90.61667 38.971874 90.81979Q39.284374 91.02292 40.096874 91.21042Q40.909374 91.38229 41.409374 91.63229Q41.909374 91.88229 42.14375 92.24167Q42.39375 92.60104 42.39375 93.10104Q42.39375 93.96042 41.70625 94.47604Q41.034374 94.99167 39.95625 94.99167Q39.190624 94.99167 38.596874 94.72604Q38.01875 94.44479 37.690624 93.96042Q37.3625 93.47604 37.3625 92.91354L38.440624 92.91354Q38.471874 93.46042 38.878124 93.78854Q39.284374 94.10104 39.95625 94.10104Q40.565624 94.10104 40.940624 93.85104Q41.315624 93.60104 41.315624 93.17917Z" fill-rule="nonzero"/><path fill="#757575" d="M183.86037 345.66876L185.00099 345.66876L185.00099 351.71564Q185.00099 352.9344 184.25099 353.6375Q183.51662 354.325 182.29787 354.325Q181.03224 354.325 180.31349 353.66876Q179.61037 353.0125 179.61037 351.84064L180.73537 351.84064Q180.73537 352.575 181.12599 352.9969Q181.53224 353.40314 182.29787 353.40314Q183.00099 353.40314 183.42287 352.96564Q183.86037 352.5125 183.86037 351.73126L183.86037 345.66876ZM191.03224 354.2Q190.93849 354.0125 190.87599 353.52814Q190.12599 354.325 189.07912 354.325Q188.14162 354.325 187.53224 353.79376Q186.93849 353.2625 186.93849 352.4344Q186.93849 351.45 187.68849 350.90314Q188.43849 350.35626 189.81349 350.35626L190.86037 350.35626L190.86037 349.85626Q190.86037 349.29376 190.51662 348.96564Q190.18849 348.6219 189.51662 348.6219Q188.93849 348.6219 188.54787 348.91876Q188.15724 349.2 188.15724 349.6219L187.06349 349.6219Q187.06349 349.1375 187.39162 348.7Q187.73537 348.2625 188.31349 348.0125Q188.89162 347.7469 189.57912 347.7469Q190.68849 347.7469 191.29787 348.29376Q191.92287 348.84064 191.95412 349.79376L191.95412 352.71564Q191.95412 353.59064 192.17287 354.10626L192.17287 354.2L191.03224 354.2ZM189.23537 353.3719Q189.75099 353.3719 190.20412 353.10626Q190.65724 352.84064 190.86037 352.41876L190.86037 351.1219L190.01662 351.1219Q188.01662 351.1219 188.01662 352.29376Q188.01662 352.79376 188.36037 353.09064Q188.70412 353.3719 189.23537 353.3719ZM196.20412 352.73126L197.78224 347.85626L198.89162 347.85626L196.61037 354.2L195.78224 354.2L193.48537 347.85626L194.59474 347.85626L196.20412 352.73126ZM204.03224 354.2Q203.93849 354.0125 203.87599 353.52814Q203.12599 354.325 202.07912 354.325Q201.14162 354.325 200.53224 353.79376Q199.93849 353.2625 199.93849 352.4344Q199.93849 351.45 200.68849 350.90314Q201.43849 350.35626 202.81349 350.35626L203.86037 350.35626L203.86037 349.85626Q203.86037 349.29376 203.51662 348.96564Q203.18849 348.6219 202.51662 348.6219Q201.93849 348.6219 201.54787 348.91876Q201.15724 349.2 201.15724 349.6219L200.06349 349.6219Q200.06349 349.1375 200.39162 348.7Q200.73537 348.2625 201.31349 348.0125Q201.89162 347.7469 202.57912 347.7469Q203.68849 347.7469 204.29787 348.29376Q204.92287 348.84064 204.95412 349.79376L204.95412 352.71564Q204.95412 353.59064 205.17287 354.10626L205.17287 354.2L204.03224 354.2ZM202.23537 353.3719Q202.75099 353.3719 203.20412 353.10626Q203.65724 352.84064 203.86037 352.41876L203.86037 351.1219L203.01662 351.1219Q201.01662 351.1219 201.01662 352.29376Q201.01662 352.79376 201.36037 353.09064Q201.70412 353.3719 202.23537 353.3719ZM209.79787 350.40314Q208.36037 349.98126 207.68849 349.3719Q207.03224 348.7625 207.03224 347.8719Q207.03224 346.8719 207.82912 346.21564Q208.64162 345.54376 209.93849 345.54376Q210.81349 345.54376 211.50099 345.8875Q212.18849 346.23126 212.56349 346.825Q212.95412 347.41876 212.95412 348.1375L211.81349 348.1375Q211.81349 347.35626 211.31349 346.91876Q210.82912 346.48126 209.93849 346.48126Q209.11037 346.48126 208.64162 346.85626Q208.17287 347.21564 208.17287 347.85626Q208.17287 348.3875 208.61037 348.7469Q209.06349 349.10626 210.12599 349.40314Q211.18849 349.7 211.78224 350.0594Q212.39162 350.41876 212.67287 350.90314Q212.96974 351.3875 212.96974 352.02814Q212.96974 353.075 212.15724 353.7Q211.34474 354.325 210.00099 354.325Q209.11037 354.325 208.34474 353.98126Q207.59474 353.6375 207.17287 353.0594Q206.76662 352.46564 206.76662 351.73126L207.89162 351.73126Q207.89162 352.4969 208.46974 352.95Q209.04787 353.40314 210.00099 353.40314Q210.89162 353.40314 211.36037 353.04376Q211.82912 352.66876 211.82912 352.04376Q211.82912 351.41876 211.39162 351.075Q210.95412 350.73126 209.79787 350.40314ZM216.65724 353.4344Q217.23537 353.4344 217.67287 353.09064Q218.11037 352.73126 218.15724 352.2L219.18849 352.2Q219.15724 352.7469 218.79787 353.2469Q218.45412 353.73126 217.87599 354.02814Q217.31349 354.325 216.65724 354.325Q215.36037 354.325 214.59474 353.46564Q213.84474 352.59064 213.84474 351.09064L213.84474 350.90314Q213.84474 349.98126 214.17287 349.2625Q214.51662 348.54376 215.14162 348.15314Q215.78224 347.7469 216.65724 347.7469Q217.71974 347.7469 218.42287 348.3875Q219.14162 349.0125 219.18849 350.04376L218.15724 350.04376Q218.11037 349.41876 217.68849 349.02814Q217.26662 348.6375 216.65724 348.6375Q215.82912 348.6375 215.37599 349.23126Q214.92287 349.825 214.92287 350.95L214.92287 351.15314Q214.92287 352.2469 215.37599 352.84064Q215.82912 353.4344 216.65724 353.4344ZM223.18849 348.825Q222.93849 348.79376 222.65724 348.79376Q221.57912 348.79376 221.20412 349.7L221.20412 354.2L220.12599 354.2L220.12599 347.85626L221.17287 347.85626L221.18849 348.59064Q221.71974 347.7469 222.70412 347.7469Q223.01662 347.7469 223.18849 347.825L223.18849 348.825ZM225.29787 354.2L224.21974 354.2L224.21974 347.85626L225.29787 347.85626L225.29787 354.2ZM224.12599 346.1844Q224.12599 345.91876 224.28224 345.73126Q224.45412 345.54376 224.76662 345.54376Q225.07912 345.54376 225.23537 345.73126Q225.40724 345.91876 225.40724 346.1844Q225.40724 346.4344 225.23537 346.6219Q225.07912 346.79376 224.76662 346.79376Q224.45412 346.79376 224.28224 346.6219Q224.12599 346.4344 224.12599 346.1844ZM232.46974 351.10626Q232.46974 352.54376 231.81349 353.4344Q231.15724 354.325 230.01662 354.325Q228.86037 354.325 228.20412 353.59064L228.20412 356.6375L227.12599 356.6375L227.12599 347.85626L228.11037 347.85626L228.15724 348.5594Q228.82912 347.7469 230.00099 347.7469Q231.14162 347.7469 231.79787 348.60626Q232.46974 349.46564 232.46974 350.9969L232.46974 351.10626ZM231.39162 350.98126Q231.39162 349.90314 230.92287 349.29376Q230.46974 348.66876 229.67287 348.66876Q228.68849 348.66876 228.20412 349.52814L228.20412 352.5594Q228.68849 353.4344 229.68849 353.4344Q230.46974 353.4344 230.92287 352.825Q231.39162 352.2 231.39162 350.98126ZM235.59474 346.325L235.59474 347.85626L236.76662 347.85626L236.76662 348.7L235.59474 348.7L235.59474 352.6219Q235.59474 353.0125 235.75099 353.2Q235.90724 353.3875 236.28224 353.3875Q236.46974 353.3875 236.79787 353.325L236.79787 354.2Q236.37599 354.325 235.96974 354.325Q235.25099 354.325 234.87599 353.8875Q234.50099 353.4344 234.50099 352.6219L234.50099 348.7L233.34474 348.7L233.34474 347.85626L234.50099 347.85626L234.50099 346.325L235.59474 346.325Z" fill-rule="nonzero"/><path fill="#757575" d="M421.03024 351.5125L421.20212 352.6375L421.4365 351.6219L423.124 345.66876L424.07712 345.66876L425.71774 351.6219L425.95212 352.65314L426.13962 351.4969L427.46774 345.66876L428.59274 345.66876L426.53024 354.2L425.499 354.2L423.73337 347.98126L423.60837 347.325L423.46774 347.98126L421.65524 354.2L420.624 354.2L418.5615 345.66876L419.6865 345.66876L421.03024 351.5125ZM433.9365 354.2Q433.84274 354.0125 433.78024 353.52814Q433.03024 354.325 431.98337 354.325Q431.04587 354.325 430.4365 353.79376Q429.84274 353.2625 429.84274 352.4344Q429.84274 351.45 430.59274 350.90314Q431.34274 350.35626 432.71774 350.35626L433.76462 350.35626L433.76462 349.85626Q433.76462 349.29376 433.42087 348.96564Q433.09274 348.6219 432.42087 348.6219Q431.84274 348.6219 431.45212 348.91876Q431.0615 349.2 431.0615 349.6219L429.96774 349.6219Q429.96774 349.1375 430.29587 348.7Q430.63962 348.2625 431.21774 348.0125Q431.79587 347.7469 432.48337 347.7469Q433.59274 347.7469 434.20212 348.29376Q434.82712 348.84064 434.85837 349.79376L434.85837 352.71564Q434.85837 353.59064 435.07712 354.10626L435.07712 354.2L433.9365 354.2ZM432.13962 353.3719Q432.65524 353.3719 433.10837 353.10626Q433.5615 352.84064 433.76462 352.41876L433.76462 351.1219L432.92087 351.1219Q430.92087 351.1219 430.92087 352.29376Q430.92087 352.79376 431.26462 353.09064Q431.60837 353.3719 432.13962 353.3719ZM440.71774 352.5125Q440.71774 352.075 440.374 351.84064Q440.04587 351.59064 439.21774 351.41876Q438.40524 351.2469 437.92087 350.9969Q437.4365 350.7469 437.20212 350.41876Q436.98337 350.075 436.98337 349.60626Q436.98337 348.825 437.63962 348.29376Q438.29587 347.7469 439.32712 347.7469Q440.40524 347.7469 441.0615 348.3094Q441.73337 348.85626 441.73337 349.71564L440.65524 349.71564Q440.65524 349.27814 440.26462 348.96564Q439.88962 348.6375 439.32712 348.6375Q438.73337 348.6375 438.38962 348.90314Q438.0615 349.15314 438.0615 349.5594Q438.0615 349.95 438.374 350.15314Q438.6865 350.35626 439.499 350.54376Q440.3115 350.71564 440.8115 350.96564Q441.3115 351.21564 441.54587 351.575Q441.79587 351.9344 441.79587 352.4344Q441.79587 353.29376 441.10837 353.8094Q440.4365 354.325 439.35837 354.325Q438.59274 354.325 437.999 354.0594Q437.42087 353.77814 437.09274 353.29376Q436.76462 352.8094 436.76462 352.2469L437.84274 352.2469Q437.874 352.79376 438.28024 353.1219Q438.6865 353.4344 439.35837 353.4344Q439.96774 353.4344 440.34274 353.1844Q440.71774 352.9344 440.71774 352.5125ZM444.04587 347.85626L444.07712 348.5594Q444.76462 347.7469 445.95212 347.7469Q447.28024 347.7469 447.76462 348.7625Q448.07712 348.3094 448.57712 348.02814Q449.09274 347.7469 449.78024 347.7469Q451.874 347.7469 451.90524 349.95L451.90524 354.2L450.82712 354.2L450.82712 350.0125Q450.82712 349.34064 450.51462 349.0125Q450.20212 348.66876 449.46774 348.66876Q448.85837 348.66876 448.45212 349.02814Q448.0615 349.3875 447.999 349.9969L447.999 354.2L446.92087 354.2L446.92087 350.04376Q446.92087 348.66876 445.5615 348.66876Q444.499 348.66876 444.10837 349.575L444.10837 354.2L443.01462 354.2L443.01462 347.85626L444.04587 347.85626Z" fill-rule="nonzero"/><path fill="#3c78d8" d="M189.0 57.833332C189.0 57.281048 189.44771 56.833332 190.0 56.833332L200.0 56.833332C200.55229 56.833332 201.0 57.281048 201.0 57.833332L201.0 67.833336C201.0 68.38562 200.55229 68.833336 200.0 68.833336L190.0 68.833336C189.44771 68.833336 189.0 68.38562 189.0 67.833336Z" fill-rule="nonzero"/><path fill="#757575" d="M214.8125 63.395836L211.10938 63.395836L211.10938 66.41146L215.40625 66.41146L215.40625 67.333336L209.98438 67.333336L209.98438 58.802086L215.35938 58.802086L215.35938 59.72396L211.10938 59.72396L211.10938 62.47396L214.8125 62.47396L214.8125 63.395836ZM218.90625 65.864586L220.48438 60.989586L221.59375 60.989586L219.3125 67.333336L218.48438 67.333336L216.1875 60.989586L217.29688 60.989586L218.90625 65.864586ZM226.73438 67.333336Q226.64062 67.145836 226.57812 66.66146Q225.82812 67.458336 224.78125 67.458336Q223.84375 67.458336 223.23438 66.927086Q222.64062 66.395836 222.64062 65.56771Q222.64062 64.583336 223.39062 64.03646Q224.14062 63.489586 225.51562 63.489586L226.5625 63.489586L226.5625 62.989586Q226.5625 62.427086 226.21875 62.09896Q225.89062 61.75521 225.21875 61.75521Q224.64062 61.75521 224.25 62.052086Q223.85938 62.333336 223.85938 62.75521L222.76562 62.75521Q222.76562 62.270836 223.09375 61.833336Q223.4375 61.395836 224.01562 61.145836Q224.59375 60.88021 225.28125 60.88021Q226.39062 60.88021 227.0 61.427086Q227.625 61.97396 227.65625 62.927086L227.65625 65.84896Q227.65625 66.72396 227.875 67.239586L227.875 67.333336L226.73438 67.333336ZM224.9375 66.50521Q225.45312 66.50521 225.90625 66.239586Q226.35938 65.97396 226.5625 65.552086L226.5625 64.25521L225.71875 64.25521Q223.71875 64.25521 223.71875 65.427086Q223.71875 65.927086 224.0625 66.22396Q224.40625 66.50521 224.9375 66.50521ZM231.0 67.333336L229.92188 67.333336L229.92188 58.333336L231.0 58.333336L231.0 67.333336ZM236.73438 66.708336Q236.10938 67.458336 234.875 67.458336Q233.85938 67.458336 233.32812 66.864586Q232.79688 66.270836 232.79688 65.114586L232.79688 60.989586L233.875 60.989586L233.875 65.083336Q233.875 66.53646 235.04688 66.53646Q236.29688 66.53646 236.70312 65.59896L236.70312 60.989586L237.79688 60.989586L237.79688 67.333336L236.76562 67.333336L236.73438 66.708336ZM243.73438 67.333336Q243.64062 67.145836 243.57812 66.66146Q242.82812 67.458336 241.78125 67.458336Q240.84375 67.458336 240.23438 66.927086Q239.64062 66.395836 239.64062 65.56771Q239.64062 64.583336 240.39062 64.03646Q241.14062 63.489586 242.51562 63.489586L243.5625 63.489586L243.5625 62.989586Q243.5625 62.427086 243.21875 62.09896Q242.89062 61.75521 242.21875 61.75521Q241.64062 61.75521 241.25 62.052086Q240.85938 62.333336 240.85938 62.75521L239.76562 62.75521Q239.76562 62.270836 240.09375 61.833336Q240.4375 61.395836 241.01562 61.145836Q241.59375 60.88021 242.28125 60.88021Q243.39062 60.88021 244.0 61.427086Q244.625 61.97396 244.65625 62.927086L244.65625 65.84896Q244.65625 66.72396 244.875 67.239586L244.875 67.333336L243.73438 67.333336ZM241.9375 66.50521Q242.45312 66.50521 242.90625 66.239586Q243.35938 65.97396 243.5625 65.552086L243.5625 64.25521L242.71875 64.25521Q240.71875 64.25521 240.71875 65.427086Q240.71875 65.927086 241.0625 66.22396Q241.40625 66.50521 241.9375 66.50521ZM248.29688 59.458336L248.29688 60.989586L249.46875 60.989586L249.46875 61.833336L248.29688 61.833336L248.29688 65.75521Q248.29688 66.145836 248.45312 66.333336Q248.60938 66.520836 248.98438 66.520836Q249.17188 66.520836 249.5 66.458336L249.5 67.333336Q249.07812 67.458336 248.67188 67.458336Q247.95312 67.458336 247.57812 67.020836Q247.20312 66.56771 247.20312 65.75521L247.20312 61.833336L246.04688 61.833336L246.04688 60.989586L247.20312 60.989586L247.20312 59.458336L248.29688 59.458336ZM252.0 67.333336L250.92188 67.333336L250.92188 60.989586L252.0 60.989586L252.0 67.333336ZM250.82812 59.31771Q250.82812 59.052086 250.98438 58.864586Q251.15625 58.677086 251.46875 58.677086Q251.78125 58.677086 251.9375 58.864586Q252.10938 59.052086 252.10938 59.31771Q252.10938 59.56771 251.9375 59.75521Q251.78125 59.927086 251.46875 59.927086Q251.15625 59.927086 250.98438 59.75521Q250.82812 59.56771 250.82812 59.31771ZM254.84375 60.989586L254.875 61.78646Q255.60938 60.88021 256.78125 60.88021Q258.79688 60.88021 258.8125 63.145836L258.8125 67.333336L257.71875 67.333336L257.71875 63.13021Q257.71875 62.458336 257.40625 62.13021Q257.10938 61.802086 256.45312 61.802086Q255.92188 61.802086 255.51562 62.083336Q255.125 62.364586 254.90625 62.81771L254.90625 67.333336L253.82812 67.333336L253.82812 60.989586L254.84375 60.989586ZM260.5625 64.114586Q260.5625 62.63021 261.25 61.75521Q261.9375 60.88021 263.0625 60.88021Q264.21875 60.88021 264.875 61.69271L264.92188 60.989586L265.92188 60.989586L265.92188 67.177086Q265.92188 68.41146 265.1875 69.114586Q264.45312 69.833336 263.23438 69.833336Q262.54688 69.833336 261.89062 69.53646Q261.23438 69.239586 260.89062 68.739586L261.45312 68.083336Q262.14062 68.94271 263.15625 68.94271Q263.9375 68.94271 264.375 68.489586Q264.82812 68.052086 264.82812 67.239586L264.82812 66.69271Q264.17188 67.458336 263.04688 67.458336Q261.9375 67.458336 261.25 66.56771Q260.5625 65.66146 260.5625 64.114586ZM261.65625 64.239586Q261.65625 65.302086 262.09375 65.927086Q262.53125 66.53646 263.32812 66.53646Q264.34375 66.53646 264.82812 65.59896L264.82812 62.708336Q264.32812 61.802086 263.32812 61.802086Q262.54688 61.802086 262.09375 62.41146Q261.65625 63.020836 261.65625 64.239586ZM275.8125 63.395836L272.10938 63.395836L272.10938 66.41146L276.40625 66.41146L276.40625 67.333336L270.98438 67.333336L270.98438 58.802086L276.35938 58.802086L276.35938 59.72396L272.10938 59.72396L272.10938 62.47396L275.8125 62.47396L275.8125 63.395836ZM280.45312 67.458336Q279.15625 67.458336 278.34375 66.614586Q277.54688 65.75521 277.54688 64.333336L277.54688 64.145836Q277.54688 63.19271 277.90625 62.458336Q278.26562 61.708336 278.90625 61.302086Q279.5625 60.88021 280.3125 60.88021Q281.54688 60.88021 282.23438 61.69271Q282.92188 62.50521 282.92188 64.020836L282.92188 64.47396L278.625 64.47396Q278.65625 65.41146 279.17188 65.989586Q279.70312 66.56771 280.51562 66.56771Q281.07812 66.56771 281.46875 66.333336Q281.875 66.09896 282.1875 65.708336L282.84375 66.22396Q282.04688 67.458336 280.45312 67.458336ZM280.3125 61.770836Q279.65625 61.770836 279.20312 62.25521Q278.76562 62.72396 278.67188 63.583336L281.84375 63.583336L281.84375 63.50521Q281.79688 62.677086 281.39062 62.22396Q281.0 61.770836 280.3125 61.770836ZM285.0 67.333336L283.92188 67.333336L283.92188 58.333336L285.0 58.333336L285.0 67.333336Z" fill-rule="nonzero"/><path fill="#cccccc" d="M302.0 57.833332C302.0 57.281048 302.44772 56.833332 303.0 56.833332L313.0 56.833332C313.55228 56.833332 314.0 57.281048 314.0 57.833332L314.0 67.833336C314.0 68.38562 313.55228 68.833336 313.0 68.833336L303.0 68.833336C302.44772 68.833336 302.0 68.38562 302.0 67.833336Z" fill-rule="nonzero"/><path fill="#757575" d="M324.82812 64.645836L325.0 65.770836L325.23438 64.75521L326.92188 58.802086L327.875 58.802086L329.51562 64.75521L329.75 65.78646L329.9375 64.63021L331.26562 58.802086L332.39062 58.802086L330.32812 67.333336L329.29688 67.333336L327.53125 61.114586L327.40625 60.458336L327.26562 61.114586L325.45312 67.333336L324.42188 67.333336L322.35938 58.802086L323.48438 58.802086L324.82812 64.645836ZM336.45312 67.458336Q335.15625 67.458336 334.34375 66.614586Q333.54688 65.75521 333.54688 64.333336L333.54688 64.145836Q333.54688 63.19271 333.90625 62.458336Q334.26562 61.708336 334.90625 61.302086Q335.5625 60.88021 336.3125 60.88021Q337.54688 60.88021 338.23438 61.69271Q338.92188 62.50521 338.92188 64.020836L338.92188 64.47396L334.625 64.47396Q334.65625 65.41146 335.17188 65.989586Q335.70312 66.56771 336.51562 66.56771Q337.07812 66.56771 337.46875 66.333336Q337.875 66.09896 338.1875 65.708336L338.84375 66.22396Q338.04688 67.458336 336.45312 67.458336ZM336.3125 61.770836Q335.65625 61.770836 335.20312 62.25521Q334.76562 62.72396 334.67188 63.583336L337.84375 63.583336L337.84375 63.50521Q337.79688 62.677086 337.39062 62.22396Q337.0 61.770836 336.3125 61.770836ZM345.1875 64.239586Q345.1875 65.69271 344.51562 66.583336Q343.85938 67.458336 342.73438 67.458336Q341.53125 67.458336 340.875 66.59896L340.8125 67.333336L339.82812 67.333336L339.82812 58.333336L340.90625 58.333336L340.90625 61.69271Q341.5625 60.88021 342.71875 60.88021Q343.875 60.88021 344.53125 61.75521Q345.1875 62.614586 345.1875 64.145836L345.1875 64.239586ZM344.10938 64.114586Q344.10938 63.00521 343.67188 62.41146Q343.25 61.802086 342.45312 61.802086Q341.375 61.802086 340.90625 62.78646L340.90625 65.53646Q341.40625 66.53646 342.45312 66.53646Q343.23438 66.53646 343.67188 65.927086Q344.10938 65.31771 344.10938 64.114586ZM353.29688 66.208336Q352.85938 66.833336 352.07812 67.145836Q351.29688 67.458336 350.26562 67.458336Q349.23438 67.458336 348.42188 66.97396Q347.60938 66.47396 347.17188 65.56771Q346.73438 64.66146 346.71875 63.47396L346.71875 62.739586Q346.71875 60.802086 347.60938 59.739586Q348.51562 58.677086 350.14062 58.677086Q351.48438 58.677086 352.29688 59.364586Q353.10938 60.052086 353.29688 61.302086L352.17188 61.302086Q351.84375 59.614586 350.15625 59.614586Q349.01562 59.614586 348.4375 60.41146Q347.85938 61.19271 347.84375 62.708336L347.84375 63.395836Q347.84375 64.833336 348.5 65.69271Q349.15625 66.53646 350.28125 66.53646Q350.90625 66.53646 351.375 66.395836Q351.85938 66.25521 352.17188 65.91146L352.17188 64.00521L350.20312 64.00521L350.20312 63.083336L353.29688 63.083336L353.29688 66.208336ZM356.125 66.41146L360.17188 66.41146L360.17188 67.333336L354.98438 67.333336L354.98438 58.802086L356.125 58.802086L356.125 66.41146ZM361.03125 68.06771L360.10938 68.06771L363.67188 58.802086L364.59375 58.802086L361.03125 68.06771ZM369.125 63.88021L367.10938 63.88021L367.10938 67.333336L365.98438 67.333336L365.98438 58.802086L368.8125 58.802086Q370.25 58.802086 371.01562 59.458336Q371.79688 60.114586 371.79688 61.364586Q371.79688 62.16146 371.35938 62.75521Q370.9375 63.34896 370.17188 63.645836L372.17188 67.25521L372.17188 67.333336L370.96875 67.333336L369.125 63.88021ZM367.10938 62.958336L368.84375 62.958336Q369.6875 62.958336 370.17188 62.53646Q370.67188 62.09896 370.67188 61.364586Q370.67188 60.583336 370.20312 60.16146Q369.73438 59.739586 368.84375 59.72396L367.10938 59.72396L367.10938 62.958336ZM375.45312 67.458336Q374.15625 67.458336 373.34375 66.614586Q372.54688 65.75521 372.54688 64.333336L372.54688 64.145836Q372.54688 63.19271 372.90625 62.458336Q373.26562 61.708336 373.90625 61.302086Q374.5625 60.88021 375.3125 60.88021Q376.54688 60.88021 377.23438 61.69271Q377.92188 62.50521 377.92188 64.020836L377.92188 64.47396L373.625 64.47396Q373.65625 65.41146 374.17188 65.989586Q374.70312 66.56771 375.51562 66.56771Q376.07812 66.56771 376.46875 66.333336Q376.875 66.09896 377.1875 65.708336L377.84375 66.22396Q377.04688 67.458336 375.45312 67.458336ZM375.3125 61.770836Q374.65625 61.770836 374.20312 62.25521Q373.76562 62.72396 373.67188 63.583336L376.84375 63.583336L376.84375 63.50521Q376.79688 62.677086 376.39062 62.22396Q376.0 61.770836 375.3125 61.770836ZM379.84375 60.989586L379.875 61.78646Q380.60938 60.88021 381.78125 60.88021Q383.79688 60.88021 383.8125 63.145836L383.8125 67.333336L382.71875 67.333336L382.71875 63.13021Q382.71875 62.458336 382.40625 62.13021Q382.10938 61.802086 381.45312 61.802086Q380.92188 61.802086 380.51562 62.083336Q380.125 62.364586 379.90625 62.81771L379.90625 67.333336L378.82812 67.333336L378.82812 60.989586L379.84375 60.989586ZM385.5625 64.114586Q385.5625 62.645836 386.25 61.770836Q386.9375 60.88021 388.0625 60.88021Q389.17188 60.88021 389.82812 61.63021L389.82812 58.333336L390.90625 58.333336L390.90625 67.333336L389.90625 67.333336L389.85938 66.645836Q389.20312 67.458336 388.04688 67.458336Q386.95312 67.458336 386.25 66.552086Q385.5625 65.645836 385.5625 64.19271L385.5625 64.114586ZM386.64062 64.239586Q386.64062 65.31771 387.07812 65.927086Q387.53125 66.53646 388.3125 66.53646Q389.34375 66.53646 389.82812 65.59896L389.82812 62.69271Q389.34375 61.802086 388.32812 61.802086Q387.53125 61.802086 387.07812 62.41146Q386.64062 63.020836 386.64062 64.239586ZM395.45312 67.458336Q394.15625 67.458336 393.34375 66.614586Q392.54688 65.75521 392.54688 64.333336L392.54688 64.145836Q392.54688 63.19271 392.90625 62.458336Q393.26562 61.708336 393.90625 61.302086Q394.5625 60.88021 395.3125 60.88021Q396.54688 60.88021 397.23438 61.69271Q397.92188 62.50521 397.92188 64.020836L397.92188 64.47396L393.625 64.47396Q393.65625 65.41146 394.17188 65.989586Q394.70312 66.56771 395.51562 66.56771Q396.07812 66.56771 396.46875 66.333336Q396.875 66.09896 397.1875 65.708336L397.84375 66.22396Q397.04688 67.458336 395.45312 67.458336ZM395.3125 61.770836Q394.65625 61.770836 394.20312 62.25521Q393.76562 62.72396 393.67188 63.583336L396.84375 63.583336L396.84375 63.50521Q396.79688 62.677086 396.39062 62.22396Q396.0 61.770836 395.3125 61.770836ZM401.89062 61.958336Q401.64062 61.927086 401.35938 61.927086Q400.28125 61.927086 399.90625 62.833336L399.90625 67.333336L398.82812 67.333336L398.82812 60.989586L399.875 60.989586L399.89062 61.72396Q400.42188 60.88021 401.40625 60.88021Q401.71875 60.88021 401.89062 60.958336L401.89062 61.958336ZM404.0 67.333336L402.92188 67.333336L402.92188 60.989586L404.0 60.989586L404.0 67.333336ZM402.82812 59.31771Q402.82812 59.052086 402.98438 58.864586Q403.15625 58.677086 403.46875 58.677086Q403.78125 58.677086 403.9375 58.864586Q404.10938 59.052086 404.10938 59.31771Q404.10938 59.56771 403.9375 59.75521Q403.78125 59.927086 403.46875 59.927086Q403.15625 59.927086 402.98438 59.75521Q402.82812 59.56771 402.82812 59.31771ZM406.84375 60.989586L406.875 61.78646Q407.60938 60.88021 408.78125 60.88021Q410.79688 60.88021 410.8125 63.145836L410.8125 67.333336L409.71875 67.333336L409.71875 63.13021Q409.71875 62.458336 409.40625 62.13021Q409.10938 61.802086 408.45312 61.802086Q407.92188 61.802086 407.51562 62.083336Q407.125 62.364586 406.90625 62.81771L406.90625 67.333336L405.82812 67.333336L405.82812 60.989586L406.84375 60.989586ZM412.5625 64.114586Q412.5625 62.63021 413.25 61.75521Q413.9375 60.88021 415.0625 60.88021Q416.21875 60.88021 416.875 61.69271L416.92188 60.989586L417.92188 60.989586L417.92188 67.177086Q417.92188 68.41146 417.1875 69.114586Q416.45312 69.833336 415.23438 69.833336Q414.54688 69.833336 413.89062 69.53646Q413.23438 69.239586 412.89062 68.739586L413.45312 68.083336Q414.14062 68.94271 415.15625 68.94271Q415.9375 68.94271 416.375 68.489586Q416.82812 68.052086 416.82812 67.239586L416.82812 66.69271Q416.17188 67.458336 415.04688 67.458336Q413.9375 67.458336 413.25 66.56771Q412.5625 65.66146 412.5625 64.114586ZM413.65625 64.239586Q413.65625 65.302086 414.09375 65.927086Q414.53125 66.53646 415.32812 66.53646Q416.34375 66.53646 416.82812 65.59896L416.82812 62.708336Q416.32812 61.802086 415.32812 61.802086Q414.54688 61.802086 414.09375 62.41146Q413.65625 63.020836 413.65625 64.239586Z" fill-rule="nonzero"/><path fill="#757575" d="M20.45625 37.8L20.45625 23.58125L25.096874 23.58125Q27.409374 23.58125 28.58125 24.534374Q29.753124 25.4875 29.753124 27.3625Q29.753124 28.3625 29.175 29.128124Q28.6125 29.89375 27.64375 30.315624Q28.784374 30.64375 29.45625 31.55Q30.128124 32.440624 30.128124 33.690624Q30.128124 35.6125 28.878124 36.70625Q27.64375 37.8 25.378124 37.8L20.45625 37.8ZM22.33125 31.14375L22.33125 36.26875L25.425 36.26875Q26.7375 36.26875 27.4875 35.596874Q28.2375 34.909374 28.2375 33.721874Q28.2375 31.14375 25.45625 31.14375L22.33125 31.14375ZM22.33125 29.64375L25.159374 29.64375Q26.39375 29.64375 27.128124 29.034374Q27.8625 28.409374 27.8625 27.3625Q27.8625 26.190624 27.175 25.659374Q26.503124 25.128124 25.096874 25.128124L22.33125 25.128124L22.33125 29.64375ZM38.690624 36.753124Q37.64375 38.003124 35.596874 38.003124Q33.909374 38.003124 33.01875 37.01875Q32.14375 36.034374 32.128124 34.1125L32.128124 27.2375L33.940624 27.2375L33.940624 34.065624Q33.940624 36.45625 35.89375 36.45625Q37.95625 36.45625 38.64375 34.925L38.64375 27.2375L40.45625 27.2375L40.45625 37.8L38.7375 37.8L38.690624 36.753124ZM45.6125 24.675L45.6125 27.2375L47.596874 27.2375L47.596874 28.628124L45.6125 28.628124L45.6125 35.175Q45.6125 35.815624 45.878124 36.14375Q46.14375 36.45625 46.784374 36.45625Q47.096874 36.45625 47.64375 36.33125L47.64375 37.8Q46.925 38.003124 46.253124 38.003124Q45.05 38.003124 44.425 37.26875Q43.815624 36.534374 43.815624 35.175L43.815624 28.628124L41.89375 28.628124L41.89375 27.2375L43.815624 27.2375L43.815624 24.675L45.6125 24.675ZM52.6125 24.675L52.6125 27.2375L54.596874 27.2375L54.596874 28.628124L52.6125 28.628124L52.6125 35.175Q52.6125 35.815624 52.878124 36.14375Q53.14375 36.45625 53.784374 36.45625Q54.096874 36.45625 54.64375 36.33125L54.64375 37.8Q53.925 38.003124 53.253124 38.003124Q52.05 38.003124 51.425 37.26875Q50.815624 36.534374 50.815624 35.175L50.815624 28.628124L48.89375 28.628124L48.89375 27.2375L50.815624 27.2375L50.815624 24.675L52.6125 24.675ZM61.55 38.003124Q59.409374 38.003124 58.05 36.596874Q56.70625 35.175 56.70625 32.815624L56.70625 32.471874Q56.70625 30.909374 57.3 29.675Q57.909374 28.440624 58.9875 27.7375Q60.065624 27.034374 61.33125 27.034374Q63.39375 27.034374 64.53438 28.39375Q65.675 29.753124 65.675 32.284374L65.675 33.034374L58.51875 33.034374Q58.55 34.596874 59.425 35.565624Q60.3 36.51875 61.64375 36.51875Q62.6125 36.51875 63.26875 36.128124Q63.940624 35.7375 64.44063 35.096874L65.53438 35.95625Q64.20625 38.003124 61.55 38.003124ZM61.33125 28.51875Q60.2375 28.51875 59.4875 29.315624Q58.753124 30.1125 58.58125 31.55L63.8625 31.55L63.8625 31.409374Q63.784374 30.034374 63.1125 29.284374Q62.45625 28.51875 61.33125 28.51875ZM73.26875 28.846874Q72.8625 28.784374 72.39375 28.784374Q70.6125 28.784374 69.97188 30.3L69.97188 37.8L68.175 37.8L68.175 27.2375L69.925 27.2375L69.95625 28.45625Q70.84688 27.034374 72.47188 27.034374Q73.00313 27.034374 73.26875 27.175L73.26875 28.846874ZM79.40938 36.51875Q80.37813 36.51875 81.09688 35.940624Q81.81563 35.346874 81.89375 34.471874L83.6125 34.471874Q83.55 35.378124 82.97188 36.20625Q82.40938 37.01875 81.44063 37.51875Q80.4875 38.003124 79.40938 38.003124Q77.25313 38.003124 75.97188 36.565624Q74.70625 35.1125 74.70625 32.6125L74.70625 32.315624Q74.70625 30.76875 75.26875 29.565624Q75.83125 28.3625 76.89375 27.70625Q77.95625 27.034374 79.39375 27.034374Q81.175 27.034374 82.34688 28.096874Q83.53438 29.159374 83.6125 30.8625L81.89375 30.8625Q81.81563 29.846874 81.1125 29.190624Q80.425 28.51875 79.39375 28.51875Q78.01875 28.51875 77.25313 29.51875Q76.50313 30.503124 76.50313 32.378124L76.50313 32.721874Q76.50313 34.55 77.25313 35.534374Q78.00313 36.51875 79.40938 36.51875ZM86.97188 28.51875Q88.175 27.034374 90.09688 27.034374Q93.45625 27.034374 93.47188 30.815624L93.47188 37.8L91.675 37.8L91.675 30.8Q91.65938 29.659374 91.14375 29.1125Q90.64375 28.565624 89.55 28.565624Q88.675 28.565624 88.00313 29.034374Q87.34688 29.503124 86.97188 30.26875L86.97188 37.8L85.175 37.8L85.175 22.8L86.97188 22.8L86.97188 28.51875ZM102.69063 36.753124Q101.64375 38.003124 99.59688 38.003124Q97.90938 38.003124 97.01875 37.01875Q96.14375 36.034374 96.12813 34.1125L96.12813 27.2375L97.94063 27.2375L97.94063 34.065624Q97.94063 36.45625 99.89375 36.45625Q101.95625 36.45625 102.64375 34.925L102.64375 27.2375L104.45625 27.2375L104.45625 37.8L102.7375 37.8L102.69063 36.753124ZM112.26875 28.846874Q111.8625 28.784374 111.39375 28.784374Q109.6125 28.784374 108.97188 30.3L108.97188 37.8L107.175 37.8L107.175 27.2375L108.925 27.2375L108.95625 28.45625Q109.84688 27.034374 111.47188 27.034374Q112.00313 27.034374 112.26875 27.175L112.26875 28.846874ZM115.87813 27.2375L115.94063 28.565624Q117.14375 27.034374 119.09688 27.034374Q122.45625 27.034374 122.47188 30.815624L122.47188 37.8L120.675 37.8L120.675 30.8Q120.65938 29.659374 120.14375 29.1125Q119.64375 28.565624 118.55 28.565624Q117.675 28.565624 117.00313 29.034374Q116.34688 29.503124 115.97188 30.26875L115.97188 37.8L114.175 37.8L114.175 27.2375L115.87813 27.2375ZM138.3 34.08125L132.34688 34.08125L131.00313 37.8L129.08125 37.8L134.50313 23.58125L136.14375 23.58125L141.58125 37.8L139.65938 37.8L138.3 34.08125ZM132.90938 32.55L137.75313 32.55L135.33125 25.89375L132.90938 32.55ZM146.65938 35.346874L149.26875 27.2375L151.1125 27.2375L147.33125 37.8L145.95625 37.8L142.12813 27.2375L143.97188 27.2375L146.65938 35.346874ZM152.7375 32.425Q152.7375 29.95625 153.87813 28.503124Q155.01875 27.034374 156.90938 27.034374Q158.84688 27.034374 159.925 28.409374L160.01875 27.2375L161.65938 27.2375L161.65938 37.55Q161.65938 39.596874 160.44063 40.76875Q159.2375 41.95625 157.175 41.95625Q156.03438 41.95625 154.94063 41.471874Q153.84688 40.9875 153.26875 40.128124L154.20625 39.05Q155.37813 40.4875 157.05 40.4875Q158.37813 40.4875 159.1125 39.7375Q159.84688 39.003124 159.84688 37.659374L159.84688 36.7375Q158.76875 38.003124 156.89375 38.003124Q155.03438 38.003124 153.87813 36.503124Q152.7375 35.003124 152.7375 32.425ZM154.55 32.628124Q154.55 34.425 155.28438 35.440624Q156.01875 36.45625 157.33125 36.45625Q159.05 36.45625 159.84688 34.909374L159.84688 30.08125Q159.01875 28.565624 157.3625 28.565624Q156.03438 28.565624 155.28438 29.596874Q154.55 30.628124 154.55 32.628124ZM164.20625 36.846874Q164.20625 36.378124 164.4875 36.065624Q164.76875 35.753124 165.31563 35.753124Q165.87813 35.753124 166.15938 36.065624Q166.45625 36.378124 166.45625 36.846874Q166.45625 37.3 166.15938 37.6125Q165.87813 37.909374 165.31563 37.909374Q164.76875 37.909374 164.4875 37.6125Q164.20625 37.3 164.20625 36.846874ZM182.3 31.51875L176.33125 31.51875L176.33125 37.8L174.45625 37.8L174.45625 23.58125L183.25313 23.58125L183.25313 25.128124L176.33125 25.128124L176.33125 29.9875L182.3 29.9875L182.3 31.51875ZM190.26875 28.846874Q189.8625 28.784374 189.39375 28.784374Q187.6125 28.784374 186.97188 30.3L186.97188 37.8L185.175 37.8L185.175 27.2375L186.925 27.2375L186.95625 28.45625Q187.84688 27.034374 189.47188 27.034374Q190.00313 27.034374 190.26875 27.175L190.26875 28.846874ZM198.69063 37.8Q198.53438 37.4875 198.44063 36.690624Q197.175 38.003124 195.425 38.003124Q193.8625 38.003124 192.8625 37.1125Q191.8625 36.221874 191.8625 34.8625Q191.8625 33.221874 193.1125 32.315624Q194.37813 31.39375 196.64375 31.39375L198.40938 31.39375L198.40938 30.565624Q198.40938 29.6125 197.83125 29.05Q197.26875 28.4875 196.175 28.4875Q195.20625 28.4875 194.55 28.9875Q193.89375 29.471874 193.89375 30.159374L192.08125 30.159374Q192.08125 29.378124 192.64375 28.64375Q193.20625 27.89375 194.15938 27.471874Q195.12813 27.034374 196.28438 27.034374Q198.1125 27.034374 199.14375 27.95625Q200.175 28.8625 200.22188 30.471874L200.22188 35.33125Q200.22188 36.784374 200.58125 37.64375L200.58125 37.8L198.69063 37.8ZM195.69063 36.425Q196.55 36.425 197.3 35.9875Q198.06563 35.55 198.40938 34.846874L198.40938 32.675L196.9875 32.675Q193.675 32.675 193.675 34.6125Q193.675 35.471874 194.2375 35.95625Q194.8 36.425 195.69063 36.425ZM204.8625 27.2375L204.90938 28.409374Q206.08125 27.034374 208.05 27.034374Q210.26875 27.034374 211.06563 28.7375Q211.59688 27.971874 212.44063 27.503124Q213.28438 27.034374 214.44063 27.034374Q217.90938 27.034374 217.97188 30.721874L217.97188 37.8L216.15938 37.8L216.15938 30.83125Q216.15938 29.690624 215.64375 29.128124Q215.12813 28.565624 213.90938 28.565624Q212.90938 28.565624 212.2375 29.175Q211.58125 29.76875 211.47188 30.784374L211.47188 37.8L209.65938 37.8L209.65938 30.878124Q209.65938 28.565624 207.39375 28.565624Q205.6125 28.565624 204.97188 30.08125L204.97188 37.8L203.15938 37.8L203.15938 27.2375L204.8625 27.2375ZM225.55 38.003124Q223.40938 38.003124 222.05 36.596874Q220.70625 35.175 220.70625 32.815624L220.70625 32.471874Q220.70625 30.909374 221.3 29.675Q221.90938 28.440624 222.9875 27.7375Q224.06563 27.034374 225.33125 27.034374Q227.39375 27.034374 228.53438 28.39375Q229.675 29.753124 229.675 32.284374L229.675 33.034374L222.51875 33.034374Q222.55 34.596874 223.425 35.565624Q224.3 36.51875 225.64375 36.51875Q226.6125 36.51875 227.26875 36.128124Q227.94063 35.7375 228.44063 35.096874L229.53438 35.95625Q228.20625 38.003124 225.55 38.003124ZM225.33125 28.51875Q224.2375 28.51875 223.4875 29.315624Q222.75313 30.1125 222.58125 31.55L227.8625 31.55L227.8625 31.409374Q227.78438 30.034374 227.1125 29.284374Q226.45625 28.51875 225.33125 28.51875ZM247.26875 25.128124L242.70625 25.128124L242.70625 37.8L240.84688 37.8L240.84688 25.128124L236.28438 25.128124L236.28438 23.58125L247.26875 23.58125L247.26875 25.128124ZM251.12813 37.8L249.33125 37.8L249.33125 27.2375L251.12813 27.2375L251.12813 37.8ZM249.175 24.425Q249.175 23.9875 249.44063 23.690624Q249.72188 23.378124 250.2375 23.378124Q250.76875 23.378124 251.03438 23.690624Q251.31563 23.9875 251.31563 24.425Q251.31563 24.8625 251.03438 25.159374Q250.76875 25.45625 250.2375 25.45625Q249.72188 25.45625 249.44063 25.159374Q249.175 24.8625 249.175 24.425ZM255.8625 27.2375L255.90938 28.409374Q257.08124 27.034374 259.05 27.034374Q261.26874 27.034374 262.0656 28.7375Q262.59686 27.971874 263.4406 27.503124Q264.28436 27.034374 265.4406 27.034374Q268.90936 27.034374 268.97186 30.721874L268.97186 37.8L267.15936 37.8L267.15936 30.83125Q267.15936 29.690624 266.64374 29.128124Q266.1281 28.565624 264.90936 28.565624Q263.90936 28.565624 263.2375 29.175Q262.58124 29.76875 262.47186 30.784374L262.47186 37.8L260.65936 37.8L260.65936 30.878124Q260.65936 28.565624 258.39374 28.565624Q256.6125 28.565624 255.97188 30.08125L255.97188 37.8L254.15938 37.8L254.15938 27.2375L255.8625 27.2375ZM274.1281 37.8L272.33124 37.8L272.33124 27.2375L274.1281 27.2375L274.1281 37.8ZM272.175 24.425Q272.175 23.9875 272.4406 23.690624Q272.72186 23.378124 273.2375 23.378124Q273.76874 23.378124 274.03436 23.690624Q274.3156 23.9875 274.3156 24.425Q274.3156 24.8625 274.03436 25.159374Q273.76874 25.45625 273.2375 25.45625Q272.72186 25.45625 272.4406 25.159374Q272.175 24.8625 272.175 24.425ZM278.8781 27.2375L278.9406 28.565624Q280.14374 27.034374 282.09686 27.034374Q285.45624 27.034374 285.47186 30.815624L285.47186 37.8L283.675 37.8L283.675 30.8Q283.65936 29.659374 283.14374 29.1125Q282.64374 28.565624 281.55 28.565624Q280.675 28.565624 280.0031 29.034374Q279.34686 29.503124 278.97186 30.26875L278.97186 37.8L277.175 37.8L277.175 27.2375L278.8781 27.2375ZM287.7375 32.425Q287.7375 29.95625 288.8781 28.503124Q290.01874 27.034374 291.90936 27.034374Q293.84686 27.034374 294.925 28.409374L295.01874 27.2375L296.65936 27.2375L296.65936 37.55Q296.65936 39.596874 295.4406 40.76875Q294.2375 41.95625 292.175 41.95625Q291.03436 41.95625 289.9406 41.471874Q288.84686 40.9875 288.26874 40.128124L289.20624 39.05Q290.3781 40.4875 292.05 40.4875Q293.3781 40.4875 294.1125 39.7375Q294.84686 39.003124 294.84686 37.659374L294.84686 36.7375Q293.76874 38.003124 291.89374 38.003124Q290.03436 38.003124 288.8781 36.503124Q287.7375 35.003124 287.7375 32.425ZM289.55 32.628124Q289.55 34.425 290.28436 35.440624Q291.01874 36.45625 292.33124 36.45625Q294.05 36.45625 294.84686 34.909374L294.84686 30.08125Q294.01874 28.565624 292.3625 28.565624Q291.03436 28.565624 290.28436 29.596874Q289.55 30.628124 289.55 32.628124Z" fill-rule="nonzero"/></svg>